# xmcd
#
# Track frame offsets:
#	150
#	18467
#	36293
#	52527
#	68594
#	84751
#	105649
#	123429
#	138716
#	158527
#	172851
#	189329
#	204353
#
# Disc length: 2934 seconds
#
# Revision: 0
# Processed by: cddbd v1.5.2PL0 Copyright (c) Steve Scherf et al.
# Submitted via: audiograbber 1.83.01
#
DISCID=960b740d
DTITLE=Riccardo Fogli - Io E I Pooh
DYEAR=1900
DGENRE=
TTITLE0=Giorni Cantat
TTITLE1=Tanta Voglia Di Lei
TTITLE2=Quando Nascerò Di Nuovo
TTITLE3=Torna A Sorridere
TTITLE4=Piccola Katy
TTITLE5=E Meglio Se Amore Non Diventerà
TTITLE6=Sulla Buona Strada
TTITLE7=Un Angelo
TTITLE8=Dio Come Vorrei
TTITLE9=Noi Due Nel Mondo E Nell'anima
TTITLE10=Il Mio Grande Avvenire
TTITLE11=Voglio Sognare
TTITLE12=Pensiero
EXTD=
EXTT0=
EXTT1=
EXTT2=
EXTT3=
EXTT4=
EXTT5=
EXTT6=
EXTT7=
EXTT8=
EXTT9=
EXTT10=
EXTT11=
EXTT12=
PLAYORDER=
